 http://img846.imageshack.us/img846/7247/30mins.jpg


Canada / Verenigde Staten / Duitsland
Avontuur / Komedie
83 minuten

geregisseerd door Ruben Fleischer
met Jesse Eisenberg, Danny McBride en Aziz Ansari

Nick (Jesse Eisenberg) is een pizzabezorger in een klein dorpje. Zijn leventje wordt op z'n kop gezet wanneer twee wannabe-gangsters (Danny McBride en Nick Swardson) hem kidnappen en hem dwingen een bank te overvallen. Nick krijgt hiervoor slechts weinig tijd en hij roept de hulp in van z'n vroegere beste vriend, Chet (Aziz Ansari). In een race tegen de klok moeten de twee omgaan met de politie, huurmoordenaars, vlammenwerpers en hun eigen vertroebelde relatie.



Vertaald door Simply Release Toppers:
Markow87 & Tokke





Screenshots:
 
http://img15.imageshack.us/img15/1508/screenshot1ci.jpg
 
http://img28.imageshack.us/img28/8815/screenshot2bf.jpg
 
http://img593.imageshack.us/img593/3277/screenshot3yqm.jpg
 
http://img263.imageshack.us/img263/5805/screenshot4uu.jpg




INFO;

Format                                   : AVI
Format/Info                              : Audio Video Interleave
File size                                : 700 MiB
Duration                                 : 1h 23mn
Overall bit rate mode                    : Variable
Overall bit rate                         : 1 179 Kbps


Video
ID                                       : 0
Format                                   : MPEG-4 Visual
Format profile                           : Advanced Simple@L5
Format settings, BVOP                    : 1
Format settings, QPel                    : No
Format settings, GMC                     : No warppoints
Format settings, Matrix                  : Custom
Codec ID                                 : XVID
Codec ID/Hint                            : XviD
Duration                                 : 1h 23mn
Bit rate                                 : 1 055 Kbps
Width                                    : 720 pixels
Height                                   : 304 pixels
Display aspect ratio                     : 2.35:1
Frame rate                               : 23.976 fps
Color space                              : YUV
Chroma subsampling                       : 4:2:0
Bit depth                                : 8 bits
Scan type                                : Progressive
Compression mode                         : Lossy
Bits/(Pixel*Frame)                       : 0.201
Stream size                              : 626 MiB (89%)
Writing library                          : XviD 64

Audio
ID                                       : 1
Format                                   : MPEG Audio
Format version                           : Version 1
Format profile                           : Layer 3
Mode                                     : Joint stereo
Mode extension                           : MS Stereo
Codec ID                                 : 55
Codec ID/Hint                            : MP3
Duration                                 : 1h 23mn
Bit rate mode                            : Variable
Bit rate                                 : 111 Kbps
Nominal bit rate                         : 128 Kbps
Channel(s)                               : 2 channels
Sampling rate                            : 48.0 KHz
Compression mode                         : Lossy
Stream size                              : 66.2 MiB (9%)
Alignment                                : Aligned on interleaves
Interleave, duration                     : 24 ms (0.58 video frame)
Interleave, preload duration             : 165 ms



 
http://www.imdb.com/title/tt1622547/ 
http://www.moviemeter.nl/film/73020




Deze film wordt u aangeboden door het DutchReleaseTeam.
Voor de reviews van de nieuwste films, muziek, series, games etc
ga dan eens naar http://www.hetmultimediacafe.be

DutchReleaseteam = Hardcoded Dutch Subs